<svg xmlns="http://www.w3.org/2000/svg" viewBox="0 0 96 96" role="img" aria-labelledby="title">
  <title id="title">Game of Life mark</title>
  <rect width="96" height="96" rx="18" fill="#171711"/>
  <g fill="#f7f3e8">
    <rect x="14" y="14" width="12" height="12" rx="2"/>
    <rect x="28" y="14" width="12" height="12" rx="2" opacity=".38"/>
    <rect x="56" y="14" width="12" height="12" rx="2"/>
    <rect x="70" y="14" width="12" height="12" rx="2" opacity=".38"/>
    <rect x="14" y="28" width="12" height="12" rx="2" opacity=".38"/>
    <rect x="42" y="28" width="12" height="12" rx="2"/>
    <rect x="56" y="28" width="12" height="12" rx="2"/>
    <rect x="28" y="42" width="12" height="12" rx="2"/>
    <rect x="42" y="42" width="12" height="12" rx="2" opacity=".38"/>
    <rect x="70" y="42" width="12" height="12" rx="2"/>
    <rect x="14" y="56" width="12" height="12" rx="2"/>
    <rect x="28" y="56" width="12" height="12" rx="2"/>
    <rect x="56" y="56" width="12" height="12" rx="2" opacity=".38"/>
    <rect x="70" y="70" width="12" height="12" rx="2"/>
    <rect x="42" y="70" width="12" height="12" rx="2"/>
  </g>
  <rect x="14" y="70" width="12" height="12" rx="2" fill="#d94f2b"/>
  <rect x="28" y="70" width="12" height="12" rx="2" fill="#087f5b"/>
  <rect x="56" y="70" width="12" height="12" rx="2" fill="#3957d7"/>
</svg>
